<svg xmlns="http://www.w3.org/2000/svg" viewBox="0 0 256 256" focusable="false" color="var(--token-ab2eba28-181e-4912-946f-7408b0746961, rgb(250, 250, 250))" style="user-select: none; width: 100%; height: 100%; display: inline-block; fill: var(--token-ab2eba28-181e-4912-946f-7408b0746961, rgb(250, 250, 250)); color: var(--token-ab2eba28-181e-4912-946f-7408b0746961, rgb(250, 250, 250)); flex-shrink: 0;"><g color="var(--token-ab2eba28-181e-4912-946f-7408b0746961, rgb(250, 250, 250))" weight="regular"><path d="M219.31,108.68l-80-80a16,16,0,0,0-22.62,0l-80,80A15.87,15.87,0,0,0,32,120v96a8,8,0,0,0,8,8h64a8,8,0,0,0,8-8V160h32v56a8,8,0,0,0,8,8h64a8,8,0,0,0,8-8V120A15.87,15.87,0,0,0,219.31,108.68ZM208,208H160V152a8,8,0,0,0-8-8H104a8,8,0,0,0-8,8v56H48V120l80-80,80,80Z"></path></g></svg>