<svg xmlns="http://www.w3.org/2000/svg" viewBox="0 0 256 256" focusable="false" color="var(--token-e81c60f0-9006-42e6-b34a-0c062c37bd1a, rgb(17, 24, 39))" style="user-select: none; width: 100%; height: 100%; display: inline-block; fill: var(--token-e81c60f0-9006-42e6-b34a-0c062c37bd1a, rgb(17, 24, 39)); color: var(--token-e81c60f0-9006-42e6-b34a-0c062c37bd1a, rgb(17, 24, 39)); flex-shrink: 0;"><g color="var(--token-e81c60f0-9006-42e6-b34a-0c062c37bd1a, rgb(17, 24, 39))" weight="regular"><path d="M219.31,108.68l-80-80a16,16,0,0,0-22.62,0l-80,80A15.87,15.87,0,0,0,32,120v96a8,8,0,0,0,8,8h64a8,8,0,0,0,8-8V160h32v56a8,8,0,0,0,8,8h64a8,8,0,0,0,8-8V120A15.87,15.87,0,0,0,219.31,108.68ZM208,208H160V152a8,8,0,0,0-8-8H104a8,8,0,0,0-8,8v56H48V120l80-80,80,80Z"></path></g></svg>