<svg xmlns="http://www.w3.org/2000/svg" viewBox="0 0 256 256" focusable="false" color="var(--token-e81c60f0-9006-42e6-b34a-0c062c37bd1a, rgb(17, 24, 39))" style="user-select: none; width: 100%; height: 100%; display: inline-block; fill: var(--token-e81c60f0-9006-42e6-b34a-0c062c37bd1a, rgb(17, 24, 39)); color: var(--token-e81c60f0-9006-42e6-b34a-0c062c37bd1a, rgb(17, 24, 39)); flex-shrink: 0;"><g color="var(--token-e81c60f0-9006-42e6-b34a-0c062c37bd1a, rgb(17, 24, 39))" weight="regular"><path d="M227.32,73.37,182.63,28.69a16,16,0,0,0-22.63,0L36.69,152A15.86,15.86,0,0,0,32,163.31V208a16,16,0,0,0,16,16H216a8,8,0,0,0,0-16H115.32l112-112A16,16,0,0,0,227.32,73.37ZM92.69,208H48V163.31l88-88L180.69,120ZM192,108.69,147.32,64l24-24L216,84.69Z"></path></g></svg>